<?xml version="1.0" encoding="utf-8"?>

<!DOCTYPE svg PUBLIC "-//W3C//DTD SVG 1.1//EN" "http://www.w3.org/Graphics/SVG/1.1/DTD/svg11.dtd">
<svg version="1.1" id="Layer_1" xmlns="http://www.w3.org/2000/svg" xmlns:xlink="http://www.w3.org/1999/xlink" x="0px" y="0px"
	 viewBox="0 0 1432.603 1654.706" enable-background="new 0 0 1432.603 1654.706" xml:space="preserve">
<g>
	<path d="M132.241,347.583c0.65-6.016,17.543-29.832,19.434-32.798c15.54-24.376,35.398-62.964,45.698-97.337
		c13.671-45.625,22.612-43.621,16.861-52.369c-1.919-2.919,1.129-5.964,1.433-9.081c1.486-15.212,12.839-13.846,4.128-19.517
		c5.214-0.818,4.664-6.232,7.461-9.058c1.749-1.767,2.197-4.373,1.22-7.368c-0.925-2.835,2.442-5.172,2.855-7.917
		c1.102-7.322,8.618-1.39,10.303-7.966c2.086-8.141,8.379-7.334,10.455-8.839c10.008-7.253,13.944,3.565,20.283-3.615
		c8.529-9.661,11.767-12.206,8.937-24.823c-1.107-4.934-3.426-10.01-1.012-14.991c7.806-16.106,14.441-32.507,22.926-20.399
		c1.628,2.323,5.042,4.211,5.381,5.947c1.634,8.374,13.6,13.827,7.031,24.414c-0.551,0.888-0.559,1.843,0.214,2.843
		c7.512,9.717,6.096,20.806,4.183,31.652c-7.796,44.209-5.47,35.383-0.207,50.566c2.209,6.371,5.707,12.282,7.132,18.915
		c0.949,4.415,0.646,8.997,1.837,13.462c12.07,45.263,105.356,129.265,117.718,142.429c16.965,18.068,31.525,37.787,43.358,59.632
		c6.712,12.391,49.065,44.954,50.147,45.923c61.274,54.862,40.384,47.206,85.153,71.763c12.668,6.949,43.692,20.753,52.229,28.188
		c6.709,5.844,8.44-5.264,29.395-14.598c4.918-2.191,2.337-5.015,5.477-5.035c5.643-0.035,7.076-1.562,17.986-46.798
		c2.187-9.069,7.108-16.962,10.684-25.43c2.359-5.586,2.128-13.422,16.546-21.5c10.587-5.931,22.122-19.992,51.004-20.984
		c23.932-0.822,29.263,5.007,33.149-0.263c0.882-1.197,2.18-0.302,3.159,0.301c3.577,2.206,7.504,3.085,11.647,3.363
		c15.422,1.035,19.708,9.141,29.411,11.172c13.985,2.927,28.397,22.337,24.625,36.227c-1.028,3.786,1.344,7.666,1.839,11.574
		c1.172,9.256,3.466,18.433,1.253,27.836c-1.478,6.281-6.126,7.345,1.733,17.09c4.782,5.93,8.58,12.546,13.791,18.208
		c4.83,5.249,3.035,10.653-3.578,13.593c-8.146,3.623-11.103,0.664-7.838,12.922c3.535,13.272-5.136,8.177-0.699,14.182
		c5.737,7.764-7.308,9.012-3.046,23.131c2.653,8.788-6.395,18.088-15.061,17.618c-13.034-0.708-21.88-3.867-39.233,0.909
		c-9.114,2.508-3.611,3.591-26.583,25.532c-6.668,6.369-5.637,13.854-15.974,30.646c-3.633,5.902-4.361,12.724-5.037,19.452
		c-0.916,9.11,25.94,7.138,45.987,14.317c12.034,4.309,35.695,7.478,45.371,10.896c27.726,9.793,47.953-5.624,115.445-9.185
		c27.35-1.443,34.096-20.971,87.348-30.903c29.322-5.469,58.797-10.52,86.82-21.1c79.574-30.042,73.761-22.554,84.598-36.389
		c5.24-6.69,11.143-12.792,16.332-19.504c5.284-6.833,28.264-6.92,45.471-22.424c3.555-3.203,5.25,3.446,4.206,7.589
		c-0.689,2.735,0.365,3.811,2.891,2.646c9.857-4.543,20.857-4.752,30.978-8.311c4.134-1.454,13.808-2.636,15.454,2.763
		c2.973,9.748-15.676,9.88-22.811,14.806c9.492,0.691,21.286-5.008,28.84-4.742c8.643,0.304,8.136,9.03,2.399,11.678
		c-10.198,4.707-23.449,4.997-22.486,8.134c1.005,3.273,18.084-8.714,20.993-0.866c1.399,3.774-0.703,7.478-4.855,8.956
		c-3.999,1.423-7.795,3.369-11.99,4.312c-8.59,1.931,5.713,6.016-4.177,12.975c-16.325,11.488-15.241,6.168-46.599,26.136
		c-21.964,13.985-49.281,9.51-65.31,14.393c-8.216,2.503-15.599,7.012-23.166,11.006c-34.327,18.121-81.775,38.389-103.644,46.307
		c-55.322,20.029-63.124,17.91-73.939,24.775c-9.093,5.772-31.811,2.879-46.109,8.801c-5.963,2.469-79.041,19.705-85.31,21.218
		c-50.805,12.256-66.024,4.786-105.144,8.889c-8.855,0.929-8.203-0.043-10.01,8.145c-3.043,13.785-6.602,35.331-26.259,50.272
		c-34.139,25.947-44.158,52.291-59.557,50.386c-18.817-2.328-30.794,43.179-87.948,60.359c-60.084,18.061-20.839,3.377-48.722,16.79
		c-22.849,10.991-40.919,19.835-76.066,20.799c-42.518,1.166-43.758,0.037-48.961,3.114c-3.87,2.288-8.651,1.426-12.7,3.309
		c-4.284,1.993-1.004-10.458-5.512-10.426c-1.628,0.012-1.362,1.178-1.412,2.168c-0.302,5.94-1.461,11.628-4.758,16.725
		c-0.376,0.582-0.834,1.584-0.59,2.021c2.829,5.07,0.529,10.497,0.518,15.547c-0.106,49.68-0.141,74.597-17.545,123.875
		c-1.409,3.99-3.308,7.923-0.937,12.223c0.248,0.449,0.231,1.176,0.076,1.696c-8.075,27.046-0.548,48.29-5.89,85.356
		c-1.255,8.709-5.631,12.649-2.103,15.292c11.725,8.782-0.654,14.221,5.721,35.571c1.033,3.459,1.071,7.035,0.691,10.502
		c-1.844,16.817,0.675,33.453,1.975,50.12c16.696,214.137,49.257,195.88,79.448,215.39c4.315,2.789,9.519,2.997,14.502,1.789
		c8.623-2.09,10.668,1.19,25.001-0.103c8.502-0.767,32.997,17.695,34.051,18.336c8.478,5.158,15.828,15.074,14.385,25.671
		c-1.059,7.776-23.244,10.835-32.983,7.051c-10.144-3.942-16.937,3.177-39.565-3.627c-30.701-9.233-89.374-1.079-107.554-2.244
		c-19.966-1.279-25.539-23.428-22.395-43.109c2.787-17.448-19.239-99.62-40.736-138.821c-21.709-39.587-16.696-49.06-24.649-51.845
		c-10.6-3.712-26.913-13.713-22.504-29.276c3.164-11.169,2.941-22.664,3.628-34.038c2.253-37.288,7.237-51.84,3.791-64.14
		c-0.231-0.824-0.392-1.889-0.069-2.611c2.574-5.763,0.957-11.863,1.55-17.776c0.862-8.6-3.276-15.467-2.497-27.047
		c1.53-22.754-17.863-93.975-23.7-136.613c-3.602-26.31-3.12-52.793-3.468-79.237c-1.89-143.816,0.043-78.827-74.79-184.908
		c-4.525-6.414-76.709-96.571-77.527-97.587c-52.109-64.727-72.068-78.833-88.609-112.505c-41.96-85.413,2.307-63.663,13.057-177.42
		c2.166-22.922,43.995-30.775,67.808-30.351c3.068,0.055,6.157,0.161,6.109-2.494c-0.03-1.628-1.523-1.395-2.305-1.153
		c-2.311,0.717-3.474-1.364-4.834-2.198c-2.019-1.237,0.823-2.858,0.857-4.128c0.192-7.114,5.476-12.018,7.43-18.288
		C139.722,342.817,135.069,349.627,132.241,347.583z M441.452,422.124c-32.587-34.481-81.363-101.152-100.721-134.227
		c-8.146-13.918-19.018-25.728-28.5-38.604c-1.31-1.779-2.726-2.001-4.478-0.663c-18.927,14.447-41.692-1.73-50.413,18.079
		c-8.911,20.242-11.524,62.331-20.316,99.822c-14.416,61.474-18.21,65.344-15.973,76.128c3.341,16.112,4.635,30.333-14.382,58.068
		c-26.401,38.504-23.941,39.717-30.866,43.236c-5.914,3.005,1.385,8.241-2.585,14.962c-0.263,0.445-0.488,1.367-0.268,1.572
		c3.048,2.832,3.122,6.782,4.025,10.411c0.889,3.571,4.704-0.428,6.465,6.687c2.362,9.543,7.36,3.727,10.298,10.292
		c3.062,6.844,18.31,15.931,39.977,36.267c18.432,17.3,36.495,35.003,54.436,52.816c10.226,10.153,22.311,18.256,31.736,29.252
		c2.702,3.152,9.6-1.371,7.488,3.958c-0.569,1.434,0.011,2.29,1.554,2.364c6.892,0.33,11.524,6,17.903,7.592
		c1.949,0.487,5.721,7.301,15.862,4.766c9.535-2.384,10.159,1.829,14.942,2.701c1.001,0.182,58.36,8.269,69.736,16.211
		c5.764,4.024,13.138,5.704,19.347,9.381c5.388,3.191,10.291,7.123,16.819,8.299c3.017,0.544,6.126,2.745,7.549,5.709
		c3.942,8.211,13.357-1.195,19.596,8.142c2.399,3.589,8.89-0.157,13.854-1.818c4.813-1.611,9.648-4.22,12.516-7.508
		c19.379-22.217,25.741-16.086,29.057-31.896c2.281-10.873,11.745-19.975,17.521-20.903c4.474-0.719,8.589-1.25,10.136-6.081
		c1.317-4.114,5.053-6.914,5.746-11.28c0.316-1.993-5.652-7.19,1.394-11.756c1.027-0.665,0.72-2.171,0.774-3.324
		c0.449-9.525,2.15-18.682,7.733-26.719c2.06-2.965-2.392-10.023,1.045-16.352c12.167-22.402-38.884-62.096-54.719-77.239
		c-47.184-45.125-105.118-123.674-105.473-124.674c-0.772-2.177-2.295-3.43-4.479-3.712
		C439.113,431.222,445.229,426.12,441.452,422.124z M721.624,561.764c1.469,2.86,2.799,2.75,5.276,0.612
		c2.769-2.391,0.827-4.787,1.111-7.168c2.341-19.641,7.703-20.398,4.298-23.776c-1.413-1.401-2.424,0.811-3.663,1.202
		c-2.475,0.781-5.784,0.46-7.043,3.51C717.727,545.533,716.979,552.721,721.624,561.764z"/>
</g>
</svg>
